<svg version="1.1" id="Layer_1" xmlns="http://www.w3.org/2000/svg" xmlns:xlink="http://www.w3.org/1999/xlink" x="0px" y="0px"
	 width="100%" viewBox="0 0 500 500" enable-background="new 0 0 500 500" xml:space="preserve">
<path fill="#FFFFFF" opacity="1.000000" stroke="none" 
	d="
M282.000000,501.000000 
	C188.000015,501.000000 94.500046,501.000000 1.000050,501.000000 
	C1.000033,334.333405 1.000033,167.666794 1.000017,1.000140 
	C167.666565,1.000093 334.333130,1.000093 500.999756,1.000046 
	C500.999847,167.666519 500.999847,334.333038 500.999939,500.999786 
	C428.166656,501.000000 355.333344,501.000000 282.000000,501.000000 
M215.433014,249.931900 
	C221.491196,243.883759 225.259659,236.658112 226.667206,228.809631 
	C221.801926,233.201096 217.022003,238.328705 211.456146,242.375336 
	C198.634674,251.697189 183.403625,253.900940 168.179474,256.107971 
	C153.841721,258.186493 140.275864,262.594086 128.915253,272.051361 
	C110.347900,287.507996 107.088463,307.810028 111.618950,330.041199 
	C113.400131,338.781494 116.801903,347.191528 119.465668,355.751923 
	C119.961983,355.593811 120.458305,355.435699 120.954620,355.277588 
	C120.457520,350.493713 119.804131,345.720093 119.490829,340.924194 
	C118.245033,321.854034 121.531403,304.105225 134.830002,289.331940 
	C144.308960,278.801910 156.772186,274.104065 170.117813,271.021698 
	C186.462494,267.246643 202.198380,262.100006 215.433014,249.931900 
M123.049774,260.051666 
	C122.861786,260.828064 122.673805,261.604462 122.455124,262.507629 
	C123.077026,262.429565 123.482628,262.505127 123.650604,262.339539 
	C135.821960,250.343857 150.774368,243.827332 167.270599,240.670776 
	C180.126266,238.210861 192.558319,234.688568 203.742691,227.740585 
	C219.256378,218.103119 228.789841,205.043396 227.043579,185.723938 
	C226.522308,179.957214 224.433090,174.445526 221.555710,172.464630 
	C223.112000,181.277771 222.310730,188.213898 216.657852,195.078979 
	C211.653625,201.156281 205.770905,206.823883 199.342209,211.344315 
	C188.481201,218.981400 175.681091,222.422592 163.001160,226.090515 
	C145.001251,231.297363 130.262558,240.853806 123.049774,260.051666 
M182.116119,194.745590 
	C178.617416,187.848434 172.464310,184.219238 166.209015,185.363327 
	C159.698837,186.554047 154.760956,191.412170 153.884491,197.488739 
	C152.987152,203.710114 155.573883,209.524582 160.619644,212.497833 
	C166.209320,215.791641 171.833527,215.666824 177.021515,211.870987 
	C182.583481,207.801498 184.238510,202.160934 182.116119,194.745590 
M333.868256,326.018707 
	C337.518066,326.014038 341.276581,326.549866 344.785309,325.843964 
	C347.933624,325.210541 352.048309,323.945251 353.435364,321.598511 
	C354.695221,319.466919 352.855682,315.503448 352.382538,312.347565 
	C354.936096,304.975586 352.428650,300.577087 343.863220,300.186829 
	C339.629547,299.993958 335.379822,300.153351 330.805908,300.153351 
	C330.805908,308.356659 330.740356,315.971832 330.900299,323.582306 
	C330.917633,324.407227 332.239594,325.204742 333.868256,326.018707 
M265.329529,301.869080 
	C263.418976,301.173004 261.508423,300.476959 259.239563,299.650360 
	C259.239563,309.099823 259.239563,317.353577 259.239563,325.734161 
	C261.203857,325.734161 262.920746,325.734161 265.250610,325.734161 
	C265.250610,320.979614 265.250610,316.494019 265.250610,310.861115 
	C268.497894,314.803040 270.837250,317.816101 273.365356,320.661438 
	C275.746277,323.341095 277.317078,327.691589 282.467346,325.558380 
	C282.467346,317.213470 282.467346,308.824097 282.467346,300.310364 
	C280.499969,300.310364 278.873688,300.310364 276.585510,300.310364 
	C276.585510,304.958496 276.585510,309.441895 276.585510,313.925262 
	C276.223389,314.031158 275.861237,314.137024 275.499115,314.242889 
	C272.278992,310.303528 269.058838,306.364197 265.329529,301.869080 
M201.875458,317.377991 
	C202.909225,316.675842 203.891479,315.482849 204.986893,315.367859 
	C207.754730,315.077271 210.573471,315.271545 213.844391,315.271545 
	C213.657928,313.433929 213.522263,312.096954 213.340546,310.306152 
	C209.303391,310.306152 205.736649,310.306152 202.079224,310.306152 
	C202.079224,308.368744 202.079224,306.940887 202.079224,304.986084 
	C206.503540,304.986084 210.736008,304.986084 215.313904,304.986084 
	C215.149734,303.033203 215.032791,301.642029 214.927673,300.391541 
	C208.390213,300.391541 202.290894,300.391541 196.145172,300.391541 
	C196.145172,309.039459 196.145172,317.417603 196.145172,325.802307 
	C202.774200,325.802307 209.056458,325.802307 215.513306,325.802307 
	C215.513306,324.213165 215.513306,322.853394 215.513306,321.101196 
	C211.723923,321.101196 208.232864,321.311615 204.795334,320.975189 
	C203.739990,320.871918 202.831131,319.271759 201.875458,317.377991 
M172.989944,318.202118 
	C176.559525,321.666992 178.268295,328.348755 185.854385,325.368469 
	C182.268494,320.756012 178.764313,316.248596 175.275497,311.760986 
	C178.800812,307.816345 181.933640,304.310913 185.391174,300.442108 
	C175.820312,298.482819 174.269165,308.246552 167.574692,311.007446 
	C167.574692,307.129791 167.574692,303.746155 167.574692,300.341705 
	C165.430832,300.341705 163.810181,300.341705 162.059250,300.341705 
	C162.059250,308.947113 162.059250,317.332703 162.059250,325.695618 
	C164.066452,325.695618 165.802551,325.695618 167.898560,325.695618 
	C167.898560,323.737823 167.529083,321.989014 167.990158,320.496826 
	C168.594940,318.539429 169.083694,315.545624 172.989944,318.202118 
M227.468674,310.540527 
	C227.468674,315.626038 227.468674,320.711548 227.468674,325.794373 
	C234.499008,325.794373 240.773895,325.794373 247.212341,325.794373 
	C247.212341,324.194153 247.212341,322.818207 247.212341,321.019226 
	C242.603378,321.019226 238.335495,321.019226 233.611771,321.019226 
	C233.715454,318.878906 233.797028,317.194580 233.901093,315.046204 
	C238.037949,315.046204 241.614120,315.046204 245.996460,315.046204 
	C243.890060,307.223236 237.123367,312.809998 233.797211,309.519714 
	C233.797211,308.384491 233.797211,306.960052 233.797211,305.015869 
	C238.245071,305.015869 242.496872,305.015869 247.101517,305.015869 
	C246.911880,303.089417 246.776611,301.715302 246.648010,300.408875 
	C240.142960,300.408875 234.057983,300.408875 227.469055,300.408875 
	C227.469055,303.634125 227.469055,306.598999 227.468674,310.540527 
M403.285797,310.510956 
	C402.446960,308.969177 401.608093,307.427368 400.251312,304.933655 
	C406.037842,304.933655 410.308746,304.933655 414.972260,304.933655 
	C414.767944,303.048370 414.619873,301.682068 414.480225,300.393372 
	C407.910828,300.393372 401.808411,300.393372 395.522400,300.393372 
	C395.522400,309.041901 395.522400,317.413940 395.522400,325.849884 
	C402.179901,325.849884 408.469421,325.849884 414.957764,325.849884 
	C414.957764,324.259521 414.957764,322.843475 414.957764,320.930573 
	C410.280396,320.930573 405.863403,320.930573 401.163940,320.930573 
	C401.368927,310.679352 409.677368,317.916504 413.150085,314.127350 
	C413.067627,313.381317 412.915894,312.008484 412.756256,310.563934 
	C409.614685,310.563934 406.950867,310.563934 403.285797,310.510956 
M313.007874,307.327545 
	C312.190613,305.507843 311.513641,303.607361 310.522980,301.887543 
	C309.057800,299.343964 304.411865,299.201508 303.188385,301.813873 
	C299.534393,309.615936 296.154907,317.546509 292.590057,325.603516 
	C296.091492,326.290680 298.988037,326.837097 300.059967,322.653351 
	C300.258789,321.877380 301.239075,321.006409 302.047150,320.729706 
	C307.275116,318.939575 312.718414,321.065765 315.154846,325.705933 
	C317.040131,325.705933 318.915039,325.705933 321.222565,325.705933 
	C318.446350,319.534271 315.861206,313.787384 313.007874,307.327545 
M368.555878,300.136658 
	C367.707245,301.013947 366.145325,301.872772 366.122101,302.771393 
	C365.925598,310.371246 366.009949,317.978363 366.009949,325.739563 
	C372.560760,325.739563 378.623444,325.739563 385.017639,325.739563 
	C384.872314,324.056122 384.753174,322.675812 384.604797,320.956787 
	C380.315765,320.956787 376.382904,320.956787 372.016876,320.956787 
	C372.016876,314.978180 372.166718,309.355011 371.900665,303.751617 
	C371.841736,302.510620 370.313416,301.339417 368.555878,300.136658 
M203.913773,152.910233 
	C202.006134,153.151535 200.098511,153.392853 198.190872,153.634171 
	C204.607712,155.907455 207.844284,160.167969 207.563950,167.394897 
	C209.685547,160.520370 214.557449,158.021896 221.283844,157.735489 
	C214.309677,156.052078 212.005508,151.293732 211.551956,147.669678 
	C210.087448,148.740280 207.381073,150.718689 203.913773,152.910233 
M365.931854,340.490997 
	C363.856354,339.460480 362.834717,339.981232 362.894440,342.420288 
	C362.932251,343.964264 362.756348,345.513489 362.666016,347.258820 
	C358.963684,345.346252 358.366241,340.087158 353.257812,340.077942 
	C353.257812,344.248138 353.159546,347.906891 353.331177,351.552948 
	C353.370972,352.398560 354.331329,353.200867 354.868103,354.023071 
	C355.472778,353.264404 356.398865,352.585175 356.610321,351.729340 
	C356.970154,350.273041 356.880402,348.705688 357.000824,346.858795 
	C359.945465,349.755920 362.432739,352.203094 364.920013,354.650238 
	C365.307770,354.335449 365.695496,354.020630 366.083252,353.705841 
	C366.083252,349.580322 366.083252,345.454773 365.931854,340.490997 
M233.033890,349.314850 
	C234.864410,351.072540 236.694916,352.830231 238.525421,354.587921 
	C238.931915,354.281250 239.338425,353.974579 239.744919,353.667908 
	C239.744919,351.204987 239.991135,348.709473 239.670746,346.288971 
	C239.390396,344.170837 238.473129,342.136993 237.837250,340.065918 
	C237.299225,342.102081 236.772385,344.141357 236.208954,346.170471 
	C236.138718,346.423401 235.874725,346.622498 235.659988,346.898621 
	C233.130341,344.406708 230.627731,341.941437 228.125122,339.476135 
	C227.787979,339.753479 227.450851,340.030792 227.113708,340.308105 
	C227.113708,344.750519 227.113708,349.192932 227.113708,353.803375 
	C227.699646,353.867310 228.870239,354.097809 228.904877,353.983612 
	C229.596939,351.702576 230.157913,349.381836 230.815567,346.792877 
	C231.484680,347.534882 232.017258,348.125458 233.033890,349.314850 
M184.419357,353.943420 
	C190.399002,354.315247 193.404404,352.735107 194.167938,348.669952 
	C194.916702,344.683594 193.401932,341.669495 189.561630,340.382019 
	C185.706390,339.089569 182.241211,340.077972 180.086487,343.753571 
	C178.023651,347.272430 179.355774,350.636993 184.419357,353.943420 
M328.822723,345.194977 
	C328.750702,346.017670 328.529205,346.859467 328.631287,347.659943 
	C329.223480,352.303131 332.703979,354.791565 337.508301,354.083466 
	C341.570129,353.484772 344.341034,349.750122 343.608551,345.861359 
	C342.843536,341.799652 338.801392,338.903717 334.623260,340.170380 
	C332.506622,340.812103 330.855164,342.988373 328.822723,345.194977 
M204.025925,340.997009 
	C204.014725,343.494934 203.875259,346.000519 204.023239,348.488983 
	C204.230164,351.968872 206.095520,353.980927 209.696350,354.186798 
	C213.353226,354.395874 215.954498,353.049622 216.465561,349.177551 
	C216.768677,346.881104 216.770767,344.522156 216.646484,342.205322 
	C216.606781,341.465027 215.727081,340.769806 215.231705,340.053955 
	C214.574783,340.775177 213.469696,341.429321 213.349777,342.230896 
	C213.056854,344.188873 213.522110,346.284332 213.085953,348.187836 
	C212.823044,349.335083 211.443466,350.226471 210.565674,351.232819 
	C209.483582,350.232513 207.864548,349.413361 207.450928,348.187500 
	C206.893280,346.534851 207.164795,344.563782 207.261459,342.738983 
	C207.376022,340.576416 206.676071,339.553528 204.025925,340.997009 
M250.050629,342.760742 
	C250.050629,346.374146 250.050629,349.987549 250.050629,353.983124 
	C252.716965,353.983124 255.003479,354.131683 257.263092,353.948639 
	C260.734619,353.667419 263.831451,351.912567 263.736664,348.365082 
	C263.669830,345.863892 262.061554,342.261261 260.065155,341.226044 
	C257.179199,339.729553 253.138580,338.022614 250.050629,342.760742 
M275.798950,353.127502 
	C279.844330,346.849060 283.268127,354.133698 287.680847,354.137878 
	C285.727722,349.756256 284.161499,345.965698 282.325714,342.310547 
	C281.841034,341.345490 280.589813,340.368378 279.566864,340.213379 
	C278.909332,340.113770 277.723877,341.361176 277.296326,342.254364 
	C275.519531,345.965790 273.940796,349.772003 272.137573,353.890076 
	C273.391571,353.825226 274.341431,353.776093 275.798950,353.127502 
M165.210876,342.893250 
	C167.085983,342.658997 168.961090,342.424774 170.836197,342.190521 
	C170.746658,341.592133 170.657120,340.993713 170.567566,340.395325 
	C167.117172,340.395325 163.666763,340.395325 160.238480,340.395325 
	C159.460098,353.375610 159.483063,353.481445 163.145523,353.723785 
	C163.290970,352.269501 163.436798,350.811340 163.591003,349.269501 
	C165.745590,349.074982 167.790924,348.890350 169.836273,348.705688 
	C169.928268,348.230988 170.020264,347.756287 170.112259,347.281586 
	C168.684326,346.922913 167.273972,346.392426 165.824509,346.244019 
	C163.365646,345.992218 162.478592,345.202637 165.210876,342.893250 
M296.288239,340.054718 
	C292.152191,344.795441 299.281647,341.569031 298.848663,343.446747 
	C299.162628,353.565948 299.162628,353.565948 302.277863,353.660828 
	C302.277863,350.217194 302.277863,346.779419 302.277863,343.486450 
	C304.052979,342.868988 305.515564,342.360260 306.978149,341.851501 
	C306.881866,341.251038 306.785583,340.650604 306.689270,340.050140 
	C303.501099,340.050140 300.312927,340.050140 296.288239,340.054718 
M318.939758,348.401611 
	C318.939758,345.666595 318.939758,342.931610 318.939758,340.196594 
	C318.217377,340.092560 317.494995,339.988556 316.772614,339.884521 
	C314.313232,343.271698 316.155945,347.667328 315.770172,351.498535 
	C315.679657,352.397400 316.944550,353.432770 317.585876,354.405334 
	C318.037170,354.187531 318.488464,353.969727 318.939758,353.751923 
	C318.939758,352.279510 318.939758,350.807129 318.939758,348.401611 
M121.516800,357.472076 
	C121.516800,357.472076 121.530029,357.397827 121.516800,357.472076 
z"/>
<path fill="#FFCB14" opacity="1.000000" stroke="none" 
	d="
M215.180313,250.183075 
	C202.198380,262.100006 186.462494,267.246643 170.117813,271.021698 
	C156.772186,274.104065 144.308960,278.801910 134.830002,289.331940 
	C121.531403,304.105225 118.245033,321.854034 119.490829,340.924194 
	C119.804131,345.720093 120.457520,350.493713 120.954620,355.277588 
	C120.458305,355.435699 119.961983,355.593811 119.465668,355.751923 
	C116.801903,347.191528 113.400131,338.781494 111.618950,330.041199 
	C107.088463,307.810028 110.347900,287.507996 128.915253,272.051361 
	C140.275864,262.594086 153.841721,258.186493 168.179474,256.107971 
	C183.403625,253.900940 198.634674,251.697189 211.456146,242.375336 
	C217.022003,238.328705 221.801926,233.201096 226.667206,228.809631 
	C225.259659,236.658112 221.491196,243.883759 215.180313,250.183075 
z"/>
<path fill="#3876C9" opacity="1.000000" stroke="none" 
	d="
M123.148582,259.722168 
	C130.262558,240.853806 145.001251,231.297363 163.001160,226.090515 
	C175.681091,222.422592 188.481201,218.981400 199.342209,211.344315 
	C205.770905,206.823883 211.653625,201.156281 216.657852,195.078979 
	C222.310730,188.213898 223.112000,181.277771 221.555710,172.464630 
	C224.433090,174.445526 226.522308,179.957214 227.043579,185.723938 
	C228.789841,205.043396 219.256378,218.103119 203.742691,227.740585 
	C192.558319,234.688568 180.126266,238.210861 167.270599,240.670776 
	C150.774368,243.827332 135.821960,250.343857 123.650604,262.339539 
	C123.482628,262.505127 123.077026,262.429565 122.455124,262.507629 
	C122.673805,261.604462 122.861786,260.828064 123.148582,259.722168 
z"/>
<path fill="#3876C9" opacity="1.000000" stroke="none" 
	d="
M182.247238,195.129578 
	C184.238510,202.160934 182.583481,207.801498 177.021515,211.870987 
	C171.833527,215.666824 166.209320,215.791641 160.619644,212.497833 
	C155.573883,209.524582 152.987152,203.710114 153.884491,197.488739 
	C154.760956,191.412170 159.698837,186.554047 166.209015,185.363327 
	C172.464310,184.219238 178.617416,187.848434 182.247238,195.129578 
z"/>
<path fill="#FF3939" opacity="1.000000" stroke="none" 
	d="
M333.412354,326.016846 
	C332.239594,325.204742 330.917633,324.407227 330.900299,323.582306 
	C330.740356,315.971832 330.805908,308.356659 330.805908,300.153351 
	C335.379822,300.153351 339.629547,299.993958 343.863220,300.186829 
	C352.428650,300.577087 354.936096,304.975586 352.382538,312.347565 
	C352.855682,315.503448 354.695221,319.466919 353.435364,321.598511 
	C352.048309,323.945251 347.933624,325.210541 344.785309,325.843964 
	C341.276581,326.549866 337.518066,326.014038 333.412354,326.016846 
M336.816620,318.398621 
	C337.841553,319.456970 338.941803,321.468170 339.877228,321.394196 
	C342.634827,321.176239 345.343048,320.181458 348.013245,319.314056 
	C348.216278,319.248108 348.220367,317.225739 347.887909,317.078003 
	C346.026886,316.250854 344.036530,315.239319 342.085297,315.228821 
	C340.259827,315.218964 337.050446,313.380310 336.816620,318.398621 
M341.297729,310.890869 
	C343.201385,309.808228 346.871460,308.097534 346.743347,307.737274 
	C344.867859,302.462402 340.585144,305.679504 336.915894,304.899323 
	C337.097565,307.922058 335.344543,311.397339 341.297729,310.890869 
z"/>
<path fill="#FF3939" opacity="1.000000" stroke="none" 
	d="
M265.584106,302.146973 
	C269.058838,306.364197 272.278992,310.303528 275.499115,314.242889 
	C275.861237,314.137024 276.223389,314.031158 276.585510,313.925262 
	C276.585510,309.441895 276.585510,304.958496 276.585510,300.310364 
	C278.873688,300.310364 280.499969,300.310364 282.467346,300.310364 
	C282.467346,308.824097 282.467346,317.213470 282.467346,325.558380 
	C277.317078,327.691589 275.746277,323.341095 273.365356,320.661438 
	C270.837250,317.816101 268.497894,314.803040 265.250610,310.861115 
	C265.250610,316.494019 265.250610,320.979614 265.250610,325.734161 
	C262.920746,325.734161 261.203857,325.734161 259.239563,325.734161 
	C259.239563,317.353577 259.239563,309.099823 259.239563,299.650360 
	C261.508423,300.476959 263.418976,301.173004 265.584106,302.146973 
z"/>
<path fill="#FF3939" opacity="1.000000" stroke="none" 
	d="
M201.865326,317.867493 
	C202.831131,319.271759 203.739990,320.871918 204.795334,320.975189 
	C208.232864,321.311615 211.723923,321.101196 215.513306,321.101196 
	C215.513306,322.853394 215.513306,324.213165 215.513306,325.802307 
	C209.056458,325.802307 202.774200,325.802307 196.145172,325.802307 
	C196.145172,317.417603 196.145172,309.039459 196.145172,300.391541 
	C202.290894,300.391541 208.390213,300.391541 214.927673,300.391541 
	C215.032791,301.642029 215.149734,303.033203 215.313904,304.986084 
	C210.736008,304.986084 206.503540,304.986084 202.079224,304.986084 
	C202.079224,306.940887 202.079224,308.368744 202.079224,310.306152 
	C205.736649,310.306152 209.303391,310.306152 213.340546,310.306152 
	C213.522263,312.096954 213.657928,313.433929 213.844391,315.271545 
	C210.573471,315.271545 207.754730,315.077271 204.986893,315.367859 
	C203.891479,315.482849 202.909225,316.675842 201.865326,317.867493 
z"/>
<path fill="#FF3B3B" opacity="1.000000" stroke="none" 
	d="
M172.741257,317.905762 
	C169.083694,315.545624 168.594940,318.539429 167.990158,320.496826 
	C167.529083,321.989014 167.898560,323.737823 167.898560,325.695618 
	C165.802551,325.695618 164.066452,325.695618 162.059250,325.695618 
	C162.059250,317.332703 162.059250,308.947113 162.059250,300.341705 
	C163.810181,300.341705 165.430832,300.341705 167.574692,300.341705 
	C167.574692,303.746155 167.574692,307.129791 167.574692,311.007446 
	C174.269165,308.246552 175.820312,298.482819 185.391174,300.442108 
	C181.933640,304.310913 178.800812,307.816345 175.275497,311.760986 
	C178.764313,316.248596 182.268494,320.756012 185.854385,325.368469 
	C178.268295,328.348755 176.559525,321.666992 172.741257,317.905762 
z"/>
<path fill="#FF3737" opacity="1.000000" stroke="none" 
	d="
M227.468872,310.052185 
	C227.469055,306.598999 227.469055,303.634125 227.469055,300.408875 
	C234.057983,300.408875 240.142960,300.408875 246.648010,300.408875 
	C246.776611,301.715302 246.911880,303.089417 247.101517,305.015869 
	C242.496872,305.015869 238.245071,305.015869 233.797211,305.015869 
	C233.797211,306.960052 233.797211,308.384491 233.797211,309.519714 
	C237.123367,312.809998 243.890060,307.223236 245.996460,315.046204 
	C241.614120,315.046204 238.037949,315.046204 233.901093,315.046204 
	C233.797028,317.194580 233.715454,318.878906 233.611771,321.019226 
	C238.335495,321.019226 242.603378,321.019226 247.212341,321.019226 
	C247.212341,322.818207 247.212341,324.194153 247.212341,325.794373 
	C240.773895,325.794373 234.499008,325.794373 227.468674,325.794373 
	C227.468674,320.711548 227.468674,315.626038 227.468872,310.052185 
z"/>
<path fill="#FF3B3B" opacity="1.000000" stroke="none" 
	d="
M403.786438,310.537445 
	C406.950867,310.563934 409.614685,310.563934 412.756256,310.563934 
	C412.915894,312.008484 413.067627,313.381317 413.150085,314.127350 
	C409.677368,317.916504 401.368927,310.679352 401.163940,320.930573 
	C405.863403,320.930573 410.280396,320.930573 414.957764,320.930573 
	C414.957764,322.843475 414.957764,324.259521 414.957764,325.849884 
	C408.469421,325.849884 402.179901,325.849884 395.522400,325.849884 
	C395.522400,317.413940 395.522400,309.041901 395.522400,300.393372 
	C401.808411,300.393372 407.910828,300.393372 414.480225,300.393372 
	C414.619873,301.682068 414.767944,303.048370 414.972260,304.933655 
	C410.308746,304.933655 406.037842,304.933655 400.251312,304.933655 
	C401.608093,307.427368 402.446960,308.969177 403.786438,310.537445 
z"/>
<path fill="#FF3B3B" opacity="1.000000" stroke="none" 
	d="
M313.141968,307.684021 
	C315.861206,313.787384 318.446350,319.534271 321.222565,325.705933 
	C318.915039,325.705933 317.040131,325.705933 315.154846,325.705933 
	C312.718414,321.065765 307.275116,318.939575 302.047150,320.729706 
	C301.239075,321.006409 300.258789,321.877380 300.059967,322.653351 
	C298.988037,326.837097 296.091492,326.290680 292.590057,325.603516 
	C296.154907,317.546509 299.534393,309.615936 303.188385,301.813873 
	C304.411865,299.201508 309.057800,299.343964 310.522980,301.887543 
	C311.513641,303.607361 312.190613,305.507843 313.141968,307.684021 
M309.411926,312.500641 
	C308.648224,310.716980 307.884491,308.933319 306.746552,306.275726 
	C305.214844,310.008362 304.083405,312.765625 302.774078,315.956390 
	C305.230011,315.956390 306.945435,316.199829 308.517487,315.831451 
	C309.110626,315.692444 309.372101,314.138214 309.411926,312.500641 
z"/>
<path fill="#FF3737" opacity="1.000000" stroke="none" 
	d="
M369.008789,300.136353 
	C370.313416,301.339417 371.841736,302.510620 371.900665,303.751617 
	C372.166718,309.355011 372.016876,314.978180 372.016876,320.956787 
	C376.382904,320.956787 380.315765,320.956787 384.604797,320.956787 
	C384.753174,322.675812 384.872314,324.056122 385.017639,325.739563 
	C378.623444,325.739563 372.560760,325.739563 366.009949,325.739563 
	C366.009949,317.978363 365.925598,310.371246 366.122101,302.771393 
	C366.145325,301.872772 367.707245,301.013947 369.008789,300.136353 
z"/>
<path fill="#FFCB14" opacity="1.000000" stroke="none" 
	d="
M204.294235,152.803680 
	C207.381073,150.718689 210.087448,148.740280 211.551956,147.669678 
	C212.005508,151.293732 214.309677,156.052078 221.283844,157.735489 
	C214.557449,158.021896 209.685547,160.520370 207.563950,167.394897 
	C207.844284,160.167969 204.607712,155.907455 198.190872,153.634171 
	C200.098511,153.392853 202.006134,153.151535 204.294235,152.803680 
z"/>
<path fill="#191919" opacity="1.000000" stroke="none" 
	d="
M366.007568,340.910126 
	C366.083252,345.454773 366.083252,349.580322 366.083252,353.705841 
	C365.695496,354.020630 365.307770,354.335449 364.920013,354.650238 
	C362.432739,352.203094 359.945465,349.755920 357.000824,346.858795 
	C356.880402,348.705688 356.970154,350.273041 356.610321,351.729340 
	C356.398865,352.585175 355.472778,353.264404 354.868103,354.023071 
	C354.331329,353.200867 353.370972,352.398560 353.331177,351.552948 
	C353.159546,347.906891 353.257812,344.248138 353.257812,340.077942 
	C358.366241,340.087158 358.963684,345.346252 362.666016,347.258820 
	C362.756348,345.513489 362.932251,343.964264 362.894440,342.420288 
	C362.834717,339.981232 363.856354,339.460480 366.007568,340.910126 
z"/>
<path fill="#191919" opacity="1.000000" stroke="none" 
	d="
M232.791870,349.015442 
	C232.017258,348.125458 231.484680,347.534882 230.815567,346.792877 
	C230.157913,349.381836 229.596939,351.702576 228.904877,353.983612 
	C228.870239,354.097809 227.699646,353.867310 227.113708,353.803375 
	C227.113708,349.192932 227.113708,344.750519 227.113708,340.308105 
	C227.450851,340.030792 227.787979,339.753479 228.125122,339.476135 
	C230.627731,341.941437 233.130341,344.406708 235.659988,346.898621 
	C235.874725,346.622498 236.138718,346.423401 236.208954,346.170471 
	C236.772385,344.141357 237.299225,342.102081 237.837250,340.065918 
	C238.473129,342.136993 239.390396,344.170837 239.670746,346.288971 
	C239.991135,348.709473 239.744919,351.204987 239.744919,353.667908 
	C239.338425,353.974579 238.931915,354.281250 238.525421,354.587921 
	C236.694916,352.830231 234.864410,351.072540 232.791870,349.015442 
z"/>
<path fill="#191919" opacity="1.000000" stroke="none" 
	d="
M184.078949,353.827576 
	C179.355774,350.636993 178.023651,347.272430 180.086487,343.753571 
	C182.241211,340.077972 185.706390,339.089569 189.561630,340.382019 
	C193.401932,341.669495 194.916702,344.683594 194.167938,348.669952 
	C193.404404,352.735107 190.399002,354.315247 184.078949,353.827576 
M184.834686,350.917725 
	C186.852859,350.107178 189.209503,349.664520 190.706406,348.287384 
	C191.233398,347.802582 190.113907,344.437775 188.891525,343.488464 
	C187.922241,342.735687 184.360626,343.300476 184.189865,343.908875 
	C183.618088,345.946014 184.051086,348.265228 184.834686,350.917725 
z"/>
<path fill="#191919" opacity="1.000000" stroke="none" 
	d="
M328.908051,344.832916 
	C330.855164,342.988373 332.506622,340.812103 334.623260,340.170380 
	C338.801392,338.903717 342.843536,341.799652 343.608551,345.861359 
	C344.341034,349.750122 341.570129,353.484772 337.508301,354.083466 
	C332.703979,354.791565 329.223480,352.303131 328.631287,347.659943 
	C328.529205,346.859467 328.750702,346.017670 328.908051,344.832916 
M334.803314,351.145538 
	C336.540161,350.327271 339.028992,349.923798 339.780212,348.561829 
	C340.401276,347.435822 339.476196,344.422546 338.303467,343.635742 
	C337.156250,342.866089 334.206055,343.200409 333.149261,344.207062 
	C330.910492,346.339600 331.399719,348.937134 334.803314,351.145538 
z"/>
<path fill="#202020" opacity="1.000000" stroke="none" 
	d="
M204.210785,340.601074 
	C206.676071,339.553528 207.376022,340.576416 207.261459,342.738983 
	C207.164795,344.563782 206.893280,346.534851 207.450928,348.187500 
	C207.864548,349.413361 209.483582,350.232513 210.565674,351.232819 
	C211.443466,350.226471 212.823044,349.335083 213.085953,348.187836 
	C213.522110,346.284332 213.056854,344.188873 213.349777,342.230896 
	C213.469696,341.429321 214.574783,340.775177 215.231705,340.053955 
	C215.727081,340.769806 216.606781,341.465027 216.646484,342.205322 
	C216.770767,344.522156 216.768677,346.881104 216.465561,349.177551 
	C215.954498,353.049622 213.353226,354.395874 209.696350,354.186798 
	C206.095520,353.980927 204.230164,351.968872 204.023239,348.488983 
	C203.875259,346.000519 204.014725,343.494934 204.210785,340.601074 
z"/>
<path fill="#141414" opacity="1.000000" stroke="none" 
	d="
M250.054932,342.294159 
	C253.138580,338.022614 257.179199,339.729553 260.065155,341.226044 
	C262.061554,342.261261 263.669830,345.863892 263.736664,348.365082 
	C263.831451,351.912567 260.734619,353.667419 257.263092,353.948639 
	C255.003479,354.131683 252.716965,353.983124 250.050629,353.983124 
	C250.050629,349.987549 250.050629,346.374146 250.054932,342.294159 
M260.824585,346.628387 
	C259.808624,342.424530 256.860870,342.597900 253.656982,343.169800 
	C253.656982,345.973358 253.656982,348.487549 253.656982,351.017517 
	C257.196320,351.518494 260.019470,351.395569 260.824585,346.628387 
z"/>
<path fill="#141414" opacity="1.000000" stroke="none" 
	d="
M275.545105,353.427246 
	C274.341431,353.776093 273.391571,353.825226 272.137573,353.890076 
	C273.940796,349.772003 275.519531,345.965790 277.296326,342.254364 
	C277.723877,341.361176 278.909332,340.113770 279.566864,340.213379 
	C280.589813,340.368378 281.841034,341.345490 282.325714,342.310547 
	C284.161499,345.965698 285.727722,349.756256 287.680847,354.137878 
	C283.268127,354.133698 279.844330,346.849060 275.545105,353.427246 
z"/>
<path fill="#202020" opacity="1.000000" stroke="none" 
	d="
M164.740402,342.951843 
	C162.478592,345.202637 163.365646,345.992218 165.824509,346.244019 
	C167.273972,346.392426 168.684326,346.922913 170.112259,347.281586 
	C170.020264,347.756287 169.928268,348.230988 169.836273,348.705688 
	C167.790924,348.890350 165.745590,349.074982 163.591003,349.269501 
	C163.436798,350.811340 163.290970,352.269501 163.145523,353.723785 
	C159.483063,353.481445 159.460098,353.375610 160.238480,340.395325 
	C163.666763,340.395325 167.117172,340.395325 170.567566,340.395325 
	C170.657120,340.993713 170.746658,341.592133 170.836197,342.190521 
	C168.961090,342.424774 167.085983,342.658997 164.740402,342.951843 
z"/>
<path fill="#141414" opacity="1.000000" stroke="none" 
	d="
M296.706482,340.052429 
	C300.312927,340.050140 303.501099,340.050140 306.689270,340.050140 
	C306.785583,340.650604 306.881866,341.251038 306.978149,341.851501 
	C305.515564,342.360260 304.052979,342.868988 302.277863,343.486450 
	C302.277863,346.779419 302.277863,350.217194 302.277863,353.660828 
	C299.162628,353.565948 299.162628,353.565948 298.848663,343.446747 
	C299.281647,341.569031 292.152191,344.795441 296.706482,340.052429 
z"/>
<path fill="#141414" opacity="1.000000" stroke="none" 
	d="
M318.939758,348.868164 
	C318.939758,350.807129 318.939758,352.279510 318.939758,353.751923 
	C318.488464,353.969727 318.037170,354.187531 317.585876,354.405334 
	C316.944550,353.432770 315.679657,352.397400 315.770172,351.498535 
	C316.155945,347.667328 314.313232,343.271698 316.772614,339.884521 
	C317.494995,339.988556 318.217377,340.092560 318.939758,340.196594 
	C318.939758,342.931610 318.939758,345.666595 318.939758,348.868164 
z"/>
<path fill="#FFCB14" opacity="1.000000" stroke="none" 
	d="
M121.523415,357.434937 
	C121.530029,357.397827 121.516800,357.472076 121.523415,357.434937 
z"/>
<path fill="#F4F4F4" opacity="1.000000" stroke="none" 
	d="
M336.819458,317.953308 
	C337.050446,313.380310 340.259827,315.218964 342.085297,315.228821 
	C344.036530,315.239319 346.026886,316.250854 347.887909,317.078003 
	C348.220367,317.225739 348.216278,319.248108 348.013245,319.314056 
	C345.343048,320.181458 342.634827,321.176239 339.877228,321.394196 
	C338.941803,321.468170 337.841553,319.456970 336.819458,317.953308 
z"/>
<path fill="#F4F4F4" opacity="1.000000" stroke="none" 
	d="
M340.856232,310.890930 
	C335.344543,311.397339 337.097565,307.922058 336.915894,304.899323 
	C340.585144,305.679504 344.867859,302.462402 346.743347,307.737274 
	C346.871460,308.097534 343.201385,309.808228 340.856232,310.890930 
z"/>
<path fill="#F4F4F4" opacity="1.000000" stroke="none" 
	d="
M309.598358,312.864868 
	C309.372101,314.138214 309.110626,315.692444 308.517487,315.831451 
	C306.945435,316.199829 305.230011,315.956390 302.774078,315.956390 
	C304.083405,312.765625 305.214844,310.008362 306.746552,306.275726 
	C307.884491,308.933319 308.648224,310.716980 309.598358,312.864868 
z"/>
<path fill="#F4F4F4" opacity="1.000000" stroke="none" 
	d="
M184.467010,350.697083 
	C184.051086,348.265228 183.618088,345.946014 184.189865,343.908875 
	C184.360626,343.300476 187.922241,342.735687 188.891525,343.488464 
	C190.113907,344.437775 191.233398,347.802582 190.706406,348.287384 
	C189.209503,349.664520 186.852859,350.107178 184.467010,350.697083 
z"/>
<path fill="#F4F4F4" opacity="1.000000" stroke="none" 
	d="
M334.399872,351.013550 
	C331.399719,348.937134 330.910492,346.339600 333.149261,344.207062 
	C334.206055,343.200409 337.156250,342.866089 338.303467,343.635742 
	C339.476196,344.422546 340.401276,347.435822 339.780212,348.561829 
	C339.028992,349.923798 336.540161,350.327271 334.399872,351.013550 
z"/>
<path fill="#F4F4F4" opacity="1.000000" stroke="none" 
	d="
M260.825378,347.026428 
	C260.019470,351.395569 257.196320,351.518494 253.656982,351.017517 
	C253.656982,348.487549 253.656982,345.973358 253.656982,343.169800 
	C256.860870,342.597900 259.808624,342.424530 260.825378,347.026428 
z"/>
</svg>