<svg version="1.1" id="Layer_1" xmlns="http://www.w3.org/2000/svg" xmlns:xlink="http://www.w3.org/1999/xlink" x="0px" y="0px"
	 width="100%" viewBox="0 0 323 222" enable-background="new 0 0 323 222" xml:space="preserve">
<path fill="#FFFEFE" opacity="1.000000" stroke="none" 
	d="
M228.000000,223.000000 
	C152.000015,223.000000 76.500015,223.000000 1.000020,223.000000 
	C1.000014,149.000015 1.000014,75.000038 1.000007,1.000040 
	C108.666634,1.000027 216.333267,1.000027 323.999939,1.000013 
	C323.999939,74.999962 323.999939,148.999924 323.999969,222.999939 
	C292.166656,223.000000 260.333344,223.000000 228.000000,223.000000 
M16.860891,184.563858 
	C20.161362,159.668365 32.948654,142.424515 57.359776,134.761337 
	C64.325600,132.574615 71.504677,131.076019 78.512497,129.012390 
	C91.566330,125.168365 103.897255,119.817116 113.477303,109.754089 
	C118.508087,104.469666 122.317696,98.356468 122.663925,90.523834 
	C111.893471,104.303604 97.309395,111.262291 80.760086,114.625084 
	C73.766830,116.046104 66.611366,116.670731 59.620674,118.102028 
	C46.772514,120.732613 34.682674,125.236542 24.671434,134.103546 
	C7.117005,149.651596 4.284656,169.521423 8.621078,191.128708 
	C10.178635,198.889603 13.104787,206.375839 15.406335,213.987442 
	C15.865141,213.854721 16.323948,213.722015 16.782753,213.589294 
	C16.782753,204.210495 16.782753,194.831711 16.860891,184.563858 
M55.438519,103.817810 
	C59.640038,102.830650 63.816093,101.714470 68.047630,100.879456 
	C83.452690,97.839523 97.757996,92.413811 109.838989,82.026062 
	C123.545074,70.241020 128.146866,51.420483 121.068161,35.903545 
	C120.587784,34.850525 119.791229,33.941734 119.141731,32.965866 
	C120.705727,42.977512 118.290863,51.822884 111.730316,58.744019 
	C105.977478,64.813049 99.513008,70.846924 92.192818,74.635635 
	C82.114052,79.852104 71.061691,83.335251 60.197231,86.853142 
	C41.350964,92.955528 26.086195,102.783455 19.753960,123.068695 
	C30.157154,114.381851 41.586742,107.661690 55.438519,103.817810 
M76.376396,70.833870 
	C80.711502,65.491028 81.429260,59.722649 78.092087,53.677246 
	C75.256737,48.540924 70.553596,46.040577 64.869690,46.293289 
	C58.785843,46.563770 54.165920,49.644413 51.744884,55.479645 
	C49.301052,61.369827 51.271366,68.743996 56.278137,72.593155 
	C62.331985,77.247307 68.761230,76.853516 76.376396,70.833870 
M236.474823,187.017929 
	C238.307693,187.012100 240.310516,187.480942 241.937012,186.898651 
	C245.031921,185.790588 248.951126,184.816849 250.628952,182.444321 
	C252.947296,179.166077 250.794479,175.604660 247.341568,173.510620 
	C251.990692,167.402847 250.308487,162.416382 243.155579,161.511642 
	C238.289383,160.896149 233.282349,161.393997 228.207367,161.393997 
	C228.207367,170.036636 228.207367,178.402588 228.207367,187.017914 
	C230.880936,187.017914 233.195358,187.017914 236.474823,187.017929 
M176.839859,187.016663 
	C177.826202,186.281555 179.649033,185.569153 179.669708,184.807800 
	C179.880814,177.035995 179.798859,169.256226 179.798859,161.371246 
	C177.549927,161.371246 175.956512,161.371246 173.672211,161.371246 
	C173.672211,166.194382 173.672211,170.802429 173.672211,176.617325 
	C170.351913,172.594177 168.010071,169.574570 165.470428,166.731689 
	C163.037323,164.008072 161.468811,159.429825 156.264313,161.644714 
	C156.264313,170.135071 156.264313,178.402924 156.264313,186.698425 
	C158.253662,186.698425 159.975754,186.698425 162.145065,186.698425 
	C162.145065,181.850769 162.145065,177.305481 162.145065,171.877686 
	C164.158875,174.241333 165.474289,175.906250 166.916534,177.452881 
	C169.917221,180.670715 172.985062,183.825912 176.839859,187.016663 
M132.562851,161.133072 
	C129.979675,161.133072 127.396500,161.133072 124.749390,161.133072 
	C124.749390,170.144897 124.749390,178.405212 124.749390,186.697052 
	C131.436478,186.697052 137.840439,186.697052 144.651596,186.697052 
	C144.448471,184.964325 144.288254,183.597626 144.086670,181.878235 
	C139.374741,181.878235 135.103104,181.878235 130.539810,181.878235 
	C130.645538,179.857162 130.729019,178.261490 130.836609,176.204941 
	C134.791779,176.204941 138.380890,176.204941 142.185974,176.204941 
	C142.185974,174.619049 142.346466,172.577362 142.162262,172.545792 
	C138.517105,171.920731 134.832001,171.528534 130.899231,171.058472 
	C130.899231,169.460602 130.899231,167.928665 130.899231,166.017212 
	C135.322586,166.017212 139.429993,166.017212 143.715164,166.017212 
	C143.715164,164.258774 143.715164,162.890930 143.715164,161.133102 
	C140.135330,161.133102 136.833389,161.133102 132.562851,161.133072 
M298.604034,187.021927 
	C303.044556,187.021927 307.485046,187.021927 312.303650,187.021927 
	C312.075378,185.054337 311.915955,183.680313 311.713715,181.937073 
	C307.087982,181.937073 302.833221,181.937073 298.461487,181.937073 
	C298.461487,179.936447 298.461487,178.364746 298.461487,176.201019 
	C302.434418,176.201019 306.151459,176.201019 310.141907,176.201019 
	C310.003082,174.346542 309.910156,173.105392 309.785706,171.442749 
	C305.910492,171.442749 302.316467,171.442749 298.492004,171.442749 
	C298.492004,169.458755 298.492004,167.921524 298.492004,165.930801 
	C303.045624,165.930801 307.297943,165.930801 311.935272,165.930801 
	C311.757507,164.078629 311.626831,162.717026 311.513245,161.533508 
	C304.840271,161.533508 298.632690,161.533508 292.458313,161.533508 
	C292.458313,170.176834 292.458313,178.405273 292.458313,187.021927 
	C294.379242,187.021927 296.010956,187.021927 298.604034,187.021927 
M65.169540,180.241287 
	C66.179657,179.297852 67.189774,178.354416 68.039986,177.560349 
	C73.100861,180.864944 74.213547,189.458435 82.860664,186.434937 
	C79.279808,181.802292 75.855606,177.372314 72.300758,172.773331 
	C75.661850,168.981888 78.856873,165.377792 82.331444,161.458328 
	C72.774078,159.543808 71.333504,169.067200 64.851471,171.923889 
	C64.851471,168.315292 64.851471,164.946091 64.851471,161.479065 
	C62.566845,161.479065 60.867470,161.479065 59.075096,161.479065 
	C59.075096,170.080139 59.075096,178.328705 59.075096,186.725464 
	C61.039104,186.725464 62.759815,186.725464 64.929588,186.725464 
	C64.929588,184.641357 64.929588,182.845596 65.169540,180.241287 
M202.012253,161.163559 
	C197.761124,169.522217 193.509995,177.880875 189.036545,186.676666 
	C194.580994,187.054489 194.580994,187.054489 197.120911,183.284653 
	C198.852386,180.714737 209.380356,180.668213 210.400208,183.514816 
	C211.892090,187.678894 214.567902,187.356262 218.134018,186.611191 
	C214.610733,178.676041 211.327255,170.882339 207.605576,163.303833 
	C207.007278,162.085541 204.453461,161.827576 202.012253,161.163559 
M109.184181,182.106461 
	C105.888206,182.106461 102.592224,182.106461 99.226105,182.106461 
	C99.226105,179.929688 99.226105,178.233383 99.226105,176.093475 
	C103.194183,176.093475 106.794235,176.093475 111.659790,176.093475 
	C109.023750,168.575531 102.650116,173.490479 99.157959,170.778214 
	C99.157959,169.476700 99.157959,167.927658 99.157959,165.985519 
	C103.554001,165.985519 107.663429,165.985519 112.143211,165.985519 
	C112.042122,164.197922 111.964867,162.831879 111.885818,161.434006 
	C105.402893,161.434006 99.325302,161.434006 93.060287,161.434006 
	C93.060287,169.994675 93.060287,178.249161 93.060287,186.748550 
	C99.672470,186.748550 106.070618,186.748550 112.468758,186.748550 
	C112.804230,186.346100 113.139694,185.943634 113.475159,185.541183 
	C112.348602,184.397095 111.222054,183.253021 109.184181,182.106461 
M269.011169,178.330963 
	C269.011169,172.728699 269.011169,167.126434 269.011169,161.485840 
	C266.733917,161.485840 265.029907,161.485840 263.243591,161.485840 
	C263.243591,170.067352 263.243591,178.306274 263.243591,186.748932 
	C269.530426,186.748932 275.585022,186.748932 281.970825,186.748932 
	C281.853210,185.088989 281.755646,183.712097 281.638641,182.060944 
	C278.136169,182.060944 274.973511,182.288437 271.877563,181.933884 
	C270.835510,181.814560 269.962830,180.216354 269.011169,178.330963 
M102.431023,13.315689 
	C100.131119,13.845387 97.831207,14.375083 95.531303,14.904780 
	C101.494392,16.837681 104.219856,21.038570 104.966972,27.162029 
	C107.444031,20.639366 112.411247,19.261723 118.370598,18.812122 
	C111.469856,17.063267 108.947365,12.297921 108.157516,6.838766 
	C106.715141,8.596764 104.923248,10.780761 102.431023,13.315689 
M136.743576,206.645752 
	C136.236221,204.787750 135.728882,202.929733 135.221527,201.071732 
	C134.583160,202.808426 133.924210,204.538010 133.319153,206.286209 
	C133.139893,206.804138 133.112381,207.374588 132.880630,208.679306 
	C131.207565,206.683853 130.149261,205.241196 128.902542,203.985626 
	C127.666519,202.740799 126.240654,201.684464 123.885681,199.686600 
	C123.885681,205.115250 123.793198,208.919037 123.960693,212.711349 
	C123.995811,213.506531 124.988007,214.259430 125.539177,215.031815 
	C126.054352,214.224640 126.846588,213.473206 127.022774,212.597794 
	C127.321709,211.112595 127.232109,209.549194 127.317703,207.771744 
	C131.054459,209.787582 131.578873,215.133316 136.743561,214.974777 
	C136.743561,212.184647 136.743561,209.866760 136.743576,206.645752 
M263.117554,210.318390 
	C263.117462,208.492035 263.332428,206.631088 263.046143,204.850769 
	C262.834320,203.533478 261.970001,202.321136 261.396362,201.062027 
	C260.902191,202.240646 260.275940,203.384338 259.952423,204.608078 
	C259.653412,205.739151 259.678864,206.955978 259.542633,208.323441 
	C256.645782,205.469009 254.121597,202.981796 251.597427,200.494583 
	C251.236664,200.789505 250.875900,201.084442 250.515137,201.379364 
	C250.515137,205.781754 250.515137,210.184143 250.515137,214.867279 
	C256.461823,215.328476 251.786530,209.462204 254.436142,208.301147 
	C256.976074,210.790237 259.465668,213.229996 261.955261,215.669739 
	C262.342712,215.341034 262.730133,215.012329 263.117554,214.683624 
	C263.117554,213.534897 263.117554,212.386154 263.117554,210.318390 
M76.311218,206.877457 
	C76.428955,208.015961 76.338921,209.225876 76.701324,210.280289 
	C78.077873,214.285416 82.213402,216.197815 86.414604,214.907150 
	C90.180145,213.750320 92.278809,209.549637 91.015404,205.698151 
	C89.846786,202.135590 85.436829,199.712952 81.701111,201.298553 
	C79.665726,202.162445 78.251541,204.489944 76.311218,206.877457 
M239.948517,211.295334 
	C240.149872,210.662170 240.439346,210.042389 240.537979,209.393600 
	C241.077103,205.847412 239.748276,203.182831 236.489624,201.691177 
	C233.129669,200.153152 229.441650,200.381546 227.540436,203.439117 
	C226.211273,205.576691 225.582382,209.701965 226.791656,211.459702 
	C228.198227,213.504257 231.880936,214.459656 234.717682,214.845978 
	C236.174210,215.044312 237.939468,212.975754 239.948517,211.295334 
M100.956696,206.450897 
	C100.961296,207.283417 100.942688,208.116806 100.974449,208.948288 
	C101.125801,212.909683 103.044174,215.106842 107.149063,215.205521 
	C111.259476,215.304367 113.311829,213.165466 113.630524,209.243820 
	C113.791908,207.257965 113.880951,205.227402 113.627563,203.265488 
	C113.523895,202.462769 112.428497,201.788147 111.784256,201.055267 
	C111.277138,201.758667 110.416351,202.422119 110.331535,203.173218 
	C110.108513,205.147964 110.520264,207.227509 110.092674,209.133759 
	C109.833214,210.290451 108.483910,211.202682 107.624214,212.224747 
	C106.524200,211.248260 104.828072,210.453232 104.462799,209.253113 
	C103.903954,207.417007 104.476379,205.264908 104.142471,203.320099 
	C103.975136,202.345459 102.866241,201.532486 102.183182,200.646393 
	C101.838821,200.822830 101.494461,200.999252 101.150101,201.175674 
	C101.085541,202.634918 101.020981,204.094162 100.956696,206.450897 
M147.165237,201.881073 
	C147.165237,206.148148 147.165237,210.415222 147.165237,214.935059 
	C149.966995,214.935059 152.460037,215.218857 154.860703,214.868927 
	C158.513779,214.336441 160.923645,212.220245 161.021606,208.256332 
	C161.119354,204.301468 158.854935,201.999786 155.213028,201.338669 
	C152.806488,200.901825 150.263779,201.215134 147.165237,201.881073 
M182.432526,210.114334 
	C181.421921,207.842789 180.554047,205.490509 179.335739,203.336426 
	C178.791061,202.373383 177.612152,201.382736 176.589035,201.216263 
	C175.937775,201.110306 174.738144,202.348282 174.312241,203.236664 
	C172.529053,206.956268 170.945236,210.771423 169.288376,214.551559 
	C174.306839,210.626236 179.226318,211.293411 184.265762,214.490936 
	C183.785583,213.263290 183.305405,212.035645 182.432526,210.114334 
M57.026546,203.732666 
	C57.023247,214.527008 57.023247,214.527008 60.146648,214.705856 
	C60.292370,213.252213 60.438385,211.795654 60.591351,210.269745 
	C62.753277,210.070450 64.794617,209.882263 66.835968,209.694077 
	C66.917389,209.255432 66.998810,208.816772 67.080231,208.378128 
	C65.818459,207.991379 64.519577,207.694061 63.306328,207.190445 
	C62.280575,206.764603 61.354038,206.099777 60.383595,205.540741 
	C61.339756,204.985016 62.237385,204.246582 63.266010,203.917038 
	C64.751877,203.440994 66.332726,203.261398 67.873047,202.955307 
	C67.699150,202.108780 67.525261,201.262268 67.351364,200.415741 
	C63.913021,201.208466 60.474678,202.001190 57.026546,203.732666 
M201.801865,203.864273 
	C202.537766,203.337830 203.273651,202.811386 205.125107,201.486893 
	C199.624008,201.486893 195.678070,201.486893 191.732132,201.486893 
	C191.620361,201.904510 191.508591,202.322128 191.396820,202.739731 
	C192.896759,203.344955 194.396698,203.950165 195.842804,204.533661 
	C196.180740,214.536240 196.180740,214.536240 199.189957,214.691864 
	C199.189957,212.542465 198.979599,210.372665 199.260895,208.268585 
	C199.462143,206.763184 200.322342,205.345886 201.801865,203.864273 
M214.673141,215.002045 
	C215.263428,210.491684 215.853714,205.981308 216.469284,201.277740 
	C212.337799,201.772034 211.322357,209.563232 214.673141,215.002045 
z"/>
<path fill="#FFCB14" opacity="1.000000" stroke="none" 
	d="
M16.821823,185.008392 
	C16.782753,194.831711 16.782753,204.210495 16.782753,213.589294 
	C16.323948,213.722015 15.865141,213.854721 15.406335,213.987442 
	C13.104787,206.375839 10.178635,198.889603 8.621078,191.128708 
	C4.284656,169.521423 7.117005,149.651596 24.671434,134.103546 
	C34.682674,125.236542 46.772514,120.732613 59.620674,118.102028 
	C66.611366,116.670731 73.766830,116.046104 80.760086,114.625084 
	C97.309395,111.262291 111.893471,104.303604 122.663925,90.523834 
	C122.317696,98.356468 118.508087,104.469666 113.477303,109.754089 
	C103.897255,119.817116 91.566330,125.168365 78.512497,129.012390 
	C71.504677,131.076019 64.325600,132.574615 57.359776,134.761337 
	C32.948654,142.424515 20.161362,159.668365 16.821823,185.008392 
z"/>
<path fill="#3876C9" opacity="1.000000" stroke="none" 
	d="
M55.043678,103.908974 
	C41.586742,107.661690 30.157154,114.381851 19.753960,123.068695 
	C26.086195,102.783455 41.350964,92.955528 60.197231,86.853142 
	C71.061691,83.335251 82.114052,79.852104 92.192818,74.635635 
	C99.513008,70.846924 105.977478,64.813049 111.730316,58.744019 
	C118.290863,51.822884 120.705727,42.977512 119.141731,32.965866 
	C119.791229,33.941734 120.587784,34.850525 121.068161,35.903545 
	C128.146866,51.420483 123.545074,70.241020 109.838989,82.026062 
	C97.757996,92.413811 83.452690,97.839523 68.047630,100.879456 
	C63.816093,101.714470 59.640038,102.830650 55.043678,103.908974 
z"/>
<path fill="#3775C9" opacity="1.000000" stroke="none" 
	d="
M76.131470,71.113007 
	C68.761230,76.853516 62.331985,77.247307 56.278137,72.593155 
	C51.271366,68.743996 49.301052,61.369827 51.744884,55.479645 
	C54.165920,49.644413 58.785843,46.563770 64.869690,46.293289 
	C70.553596,46.040577 75.256737,48.540924 78.092087,53.677246 
	C81.429260,59.722649 80.711502,65.491028 76.131470,71.113007 
z"/>
<path fill="#FF3939" opacity="1.000000" stroke="none" 
	d="
M235.992294,187.017914 
	C233.195358,187.017914 230.880936,187.017914 228.207367,187.017914 
	C228.207367,178.402588 228.207367,170.036636 228.207367,161.393997 
	C233.282349,161.393997 238.289383,160.896149 243.155579,161.511642 
	C250.308487,162.416382 251.990692,167.402847 247.341568,173.510620 
	C250.794479,175.604660 252.947296,179.166077 250.628952,182.444321 
	C248.951126,184.816849 245.031921,185.790588 241.937012,186.898651 
	C240.310516,187.480942 238.307693,187.012100 235.992294,187.017914 
M241.939438,176.178070 
	C239.364120,176.178070 236.788803,176.178070 234.149933,176.178070 
	C234.149933,178.488846 234.149933,180.345169 234.149933,182.422287 
	C236.922104,182.422287 239.391953,182.673325 241.771057,182.317581 
	C242.980774,182.136703 244.941513,180.859940 244.938339,180.085266 
	C244.933243,178.848022 243.574066,177.616364 241.939438,176.178070 
M237.418610,171.888000 
	C239.532028,171.253113 241.682693,170.708359 243.711731,169.869400 
	C243.965698,169.764374 243.766861,167.360809 243.456802,167.281784 
	C240.440826,166.513062 237.356400,166.012878 234.291489,165.436172 
	C233.849243,166.056168 233.406998,166.676178 232.964752,167.296188 
	C234.154266,168.825806 235.343781,170.355423 237.418610,171.888000 
z"/>
<path fill="#FF3A3A" opacity="1.000000" stroke="none" 
	d="
M176.432587,187.011765 
	C172.985062,183.825912 169.917221,180.670715 166.916534,177.452881 
	C165.474289,175.906250 164.158875,174.241333 162.145065,171.877686 
	C162.145065,177.305481 162.145065,181.850769 162.145065,186.698425 
	C159.975754,186.698425 158.253662,186.698425 156.264313,186.698425 
	C156.264313,178.402924 156.264313,170.135071 156.264313,161.644714 
	C161.468811,159.429825 163.037323,164.008072 165.470428,166.731689 
	C168.010071,169.574570 170.351913,172.594177 173.672211,176.617325 
	C173.672211,170.802429 173.672211,166.194382 173.672211,161.371246 
	C175.956512,161.371246 177.549927,161.371246 179.798859,161.371246 
	C179.798859,169.256226 179.880814,177.035995 179.669708,184.807800 
	C179.649033,185.569153 177.826202,186.281555 176.432587,187.011765 
z"/>
<path fill="#FF3737" opacity="1.000000" stroke="none" 
	d="
M133.047150,161.133087 
	C136.833389,161.133102 140.135330,161.133102 143.715164,161.133102 
	C143.715164,162.890930 143.715164,164.258774 143.715164,166.017212 
	C139.429993,166.017212 135.322586,166.017212 130.899231,166.017212 
	C130.899231,167.928665 130.899231,169.460602 130.899231,171.058472 
	C134.832001,171.528534 138.517105,171.920731 142.162262,172.545792 
	C142.346466,172.577362 142.185974,174.619049 142.185974,176.204941 
	C138.380890,176.204941 134.791779,176.204941 130.836609,176.204941 
	C130.729019,178.261490 130.645538,179.857162 130.539810,181.878235 
	C135.103104,181.878235 139.374741,181.878235 144.086670,181.878235 
	C144.288254,183.597626 144.448471,184.964325 144.651596,186.697052 
	C137.840439,186.697052 131.436478,186.697052 124.749390,186.697052 
	C124.749390,178.405212 124.749390,170.144897 124.749390,161.133072 
	C127.396500,161.133072 129.979675,161.133072 133.047150,161.133087 
z"/>
<path fill="#FF3B3B" opacity="1.000000" stroke="none" 
	d="
M298.123352,187.021927 
	C296.010956,187.021927 294.379242,187.021927 292.458313,187.021927 
	C292.458313,178.405273 292.458313,170.176834 292.458313,161.533508 
	C298.632690,161.533508 304.840271,161.533508 311.513245,161.533508 
	C311.626831,162.717026 311.757507,164.078629 311.935272,165.930801 
	C307.297943,165.930801 303.045624,165.930801 298.492004,165.930801 
	C298.492004,167.921524 298.492004,169.458755 298.492004,171.442749 
	C302.316467,171.442749 305.910492,171.442749 309.785706,171.442749 
	C309.910156,173.105392 310.003082,174.346542 310.141907,176.201019 
	C306.151459,176.201019 302.434418,176.201019 298.461487,176.201019 
	C298.461487,178.364746 298.461487,179.936447 298.461487,181.937073 
	C302.833221,181.937073 307.087982,181.937073 311.713715,181.937073 
	C311.915955,183.680313 312.075378,185.054337 312.303650,187.021927 
	C307.485046,187.021927 303.044556,187.021927 298.123352,187.021927 
z"/>
<path fill="#FF3B3B" opacity="1.000000" stroke="none" 
	d="
M65.049561,180.645569 
	C64.929588,182.845596 64.929588,184.641357 64.929588,186.725464 
	C62.759815,186.725464 61.039104,186.725464 59.075096,186.725464 
	C59.075096,178.328705 59.075096,170.080139 59.075096,161.479065 
	C60.867470,161.479065 62.566845,161.479065 64.851471,161.479065 
	C64.851471,164.946091 64.851471,168.315292 64.851471,171.923889 
	C71.333504,169.067200 72.774078,159.543808 82.331444,161.458328 
	C78.856873,165.377792 75.661850,168.981888 72.300758,172.773331 
	C75.855606,177.372314 79.279808,181.802292 82.860664,186.434937 
	C74.213547,189.458435 73.100861,180.864944 68.039986,177.560349 
	C67.189774,178.354416 66.179657,179.297852 65.049561,180.645569 
z"/>
<path fill="#FF3C3C" opacity="1.000000" stroke="none" 
	d="
M202.407944,161.144623 
	C204.453461,161.827576 207.007278,162.085541 207.605576,163.303833 
	C211.327255,170.882339 214.610733,178.676041 218.134018,186.611191 
	C214.567902,187.356262 211.892090,187.678894 210.400208,183.514816 
	C209.380356,180.668213 198.852386,180.714737 197.120911,183.284653 
	C194.580994,187.054489 194.580994,187.054489 189.036545,186.676666 
	C193.509995,177.880875 197.761124,169.522217 202.407944,161.144623 
M202.823380,169.577377 
	C201.859619,171.894760 200.895874,174.212128 199.886230,176.639832 
	C202.752167,176.639832 204.926880,176.639832 208.541061,176.639832 
	C206.303833,173.468277 204.689148,171.179230 202.823380,169.577377 
z"/>
<path fill="#FF3939" opacity="1.000000" stroke="none" 
	d="
M109.639839,182.107697 
	C111.222054,183.253021 112.348602,184.397095 113.475159,185.541183 
	C113.139694,185.943634 112.804230,186.346100 112.468758,186.748550 
	C106.070618,186.748550 99.672470,186.748550 93.060287,186.748550 
	C93.060287,178.249161 93.060287,169.994675 93.060287,161.434006 
	C99.325302,161.434006 105.402893,161.434006 111.885818,161.434006 
	C111.964867,162.831879 112.042122,164.197922 112.143211,165.985519 
	C107.663429,165.985519 103.554001,165.985519 99.157959,165.985519 
	C99.157959,167.927658 99.157959,169.476700 99.157959,170.778214 
	C102.650116,173.490479 109.023750,168.575531 111.659790,176.093475 
	C106.794235,176.093475 103.194183,176.093475 99.226105,176.093475 
	C99.226105,178.233383 99.226105,179.929688 99.226105,182.106461 
	C102.592224,182.106461 105.888206,182.106461 109.639839,182.107697 
z"/>
<path fill="#FF3535" opacity="1.000000" stroke="none" 
	d="
M269.011963,178.812500 
	C269.962830,180.216354 270.835510,181.814560 271.877563,181.933884 
	C274.973511,182.288437 278.136169,182.060944 281.638641,182.060944 
	C281.755646,183.712097 281.853210,185.088989 281.970825,186.748932 
	C275.585022,186.748932 269.530426,186.748932 263.243591,186.748932 
	C263.243591,178.306274 263.243591,170.067352 263.243591,161.485840 
	C265.029907,161.485840 266.733917,161.485840 269.011169,161.485840 
	C269.011169,167.126434 269.011169,172.728699 269.011963,178.812500 
z"/>
<path fill="#FFCD1B" opacity="1.000000" stroke="none" 
	d="
M102.781189,13.140224 
	C104.923248,10.780761 106.715141,8.596764 108.157516,6.838766 
	C108.947365,12.297921 111.469856,17.063267 118.370598,18.812122 
	C112.411247,19.261723 107.444031,20.639366 104.966972,27.162029 
	C104.219856,21.038570 101.494392,16.837681 95.531303,14.904780 
	C97.831207,14.375083 100.131119,13.845387 102.781189,13.140224 
z"/>
<path fill="#191919" opacity="1.000000" stroke="none" 
	d="
M136.743561,207.097305 
	C136.743561,209.866760 136.743561,212.184647 136.743561,214.974777 
	C131.578873,215.133316 131.054459,209.787582 127.317703,207.771744 
	C127.232109,209.549194 127.321709,211.112595 127.022774,212.597794 
	C126.846588,213.473206 126.054352,214.224640 125.539169,215.031815 
	C124.988007,214.259430 123.995811,213.506531 123.960693,212.711349 
	C123.793198,208.919037 123.885681,205.115250 123.885681,199.686600 
	C126.240654,201.684464 127.666519,202.740799 128.902542,203.985626 
	C130.149261,205.241196 131.207565,206.683853 132.880630,208.679306 
	C133.112381,207.374588 133.139893,206.804138 133.319153,206.286209 
	C133.924210,204.538010 134.583160,202.808426 135.221527,201.071732 
	C135.728882,202.929733 136.236221,204.787750 136.743561,207.097305 
z"/>
<path fill="#1A1A1A" opacity="1.000000" stroke="none" 
	d="
M263.117554,210.777908 
	C263.117554,212.386154 263.117554,213.534897 263.117554,214.683624 
	C262.730133,215.012329 262.342712,215.341034 261.955261,215.669739 
	C259.465668,213.229996 256.976074,210.790237 254.436142,208.301147 
	C251.786530,209.462204 256.461823,215.328476 250.515137,214.867279 
	C250.515137,210.184143 250.515137,205.781754 250.515137,201.379364 
	C250.875900,201.084442 251.236664,200.789505 251.597427,200.494583 
	C254.121597,202.981796 256.645782,205.469009 259.542633,208.323441 
	C259.678864,206.955978 259.653412,205.739151 259.952423,204.608078 
	C260.275940,203.384338 260.902191,202.240646 261.396362,201.062027 
	C261.970001,202.321136 262.834320,203.533478 263.046143,204.850769 
	C263.332428,206.631088 263.117462,208.492035 263.117554,210.777908 
z"/>
<path fill="#191919" opacity="1.000000" stroke="none" 
	d="
M76.434204,206.517395 
	C78.251541,204.489944 79.665726,202.162445 81.701111,201.298553 
	C85.436829,199.712952 89.846786,202.135590 91.015404,205.698151 
	C92.278809,209.549637 90.180145,213.750320 86.414604,214.907150 
	C82.213402,216.197815 78.077873,214.285416 76.701324,210.280289 
	C76.338921,209.225876 76.428955,208.015961 76.434204,206.517395 
M81.836891,211.913452 
	C83.852982,211.103714 86.206917,210.661316 87.702644,209.285751 
	C88.228821,208.801819 87.110504,205.440689 85.889473,204.492340 
	C84.921455,203.740494 81.364151,204.304626 81.193428,204.912582 
	C80.622063,206.947266 81.054535,209.263840 81.836891,211.913452 
z"/>
<path fill="#191919" opacity="1.000000" stroke="none" 
	d="
M239.756866,211.613480 
	C237.939468,212.975754 236.174210,215.044312 234.717682,214.845978 
	C231.880936,214.459656 228.198227,213.504257 226.791656,211.459702 
	C225.582382,209.701965 226.211273,205.576691 227.540436,203.439117 
	C229.441650,200.381546 233.129669,200.153152 236.489624,201.691177 
	C239.748276,203.182831 241.077103,205.847412 240.537979,209.393600 
	C240.439346,210.042389 240.149872,210.662170 239.756866,211.613480 
M232.627548,212.328690 
	C235.628738,212.366058 237.570099,210.926682 237.117096,207.904831 
	C236.901382,206.465805 235.352570,204.306366 234.190582,204.156525 
	C232.651489,203.958069 230.114853,204.973022 229.410187,206.244324 
	C228.120285,208.571426 228.777771,211.075699 232.627548,212.328690 
z"/>
<path fill="#202020" opacity="1.000000" stroke="none" 
	d="
M100.956558,206.002136 
	C101.020981,204.094162 101.085541,202.634918 101.150101,201.175674 
	C101.494461,200.999252 101.838821,200.822830 102.183182,200.646393 
	C102.866241,201.532486 103.975136,202.345459 104.142471,203.320099 
	C104.476379,205.264908 103.903954,207.417007 104.462799,209.253113 
	C104.828072,210.453232 106.524200,211.248260 107.624214,212.224747 
	C108.483910,211.202682 109.833214,210.290451 110.092674,209.133759 
	C110.520264,207.227509 110.108513,205.147964 110.331535,203.173218 
	C110.416351,202.422119 111.277138,201.758667 111.784264,201.055267 
	C112.428497,201.788147 113.523895,202.462769 113.627563,203.265488 
	C113.880951,205.227402 113.791908,207.257965 113.630524,209.243820 
	C113.311829,213.165466 111.259476,215.304367 107.149063,215.205521 
	C103.044174,215.106842 101.125801,212.909683 100.974449,208.948288 
	C100.942688,208.116806 100.961296,207.283417 100.956558,206.002136 
z"/>
<path fill="#141414" opacity="1.000000" stroke="none" 
	d="
M147.473633,201.536835 
	C150.263779,201.215134 152.806488,200.901825 155.213028,201.338669 
	C158.854935,201.999786 161.119354,204.301468 161.021606,208.256332 
	C160.923645,212.220245 158.513779,214.336441 154.860703,214.868927 
	C152.460037,215.218857 149.966995,214.935059 147.165237,214.935059 
	C147.165237,210.415222 147.165237,206.148148 147.473633,201.536835 
M155.724228,211.796021 
	C156.192856,209.781845 157.672836,207.060135 156.880753,205.927933 
	C155.829193,204.424820 153.004715,204.162018 150.452011,203.177246 
	C150.452011,206.889069 150.452011,209.316925 150.452011,212.046524 
	C152.065628,212.046524 153.496902,212.046524 155.724228,211.796021 
z"/>
<path fill="#121212" opacity="1.000000" stroke="none" 
	d="
M182.628876,210.461166 
	C183.305405,212.035645 183.785583,213.263290 184.265762,214.490936 
	C179.226318,211.293411 174.306839,210.626236 169.288376,214.551559 
	C170.945236,210.771423 172.529053,206.956268 174.312241,203.236664 
	C174.738144,202.348282 175.937775,201.110306 176.589035,201.216263 
	C177.612152,201.382736 178.791061,202.373383 179.335739,203.336426 
	C180.554047,205.490509 181.421921,207.842789 182.628876,210.461166 
z"/>
<path fill="#1F1F1F" opacity="1.000000" stroke="none" 
	d="
M57.031441,203.263290 
	C60.474678,202.001190 63.913021,201.208466 67.351364,200.415741 
	C67.525261,201.262268 67.699150,202.108780 67.873047,202.955307 
	C66.332726,203.261398 64.751877,203.440994 63.266010,203.917038 
	C62.237385,204.246582 61.339756,204.985016 60.383591,205.540741 
	C61.354038,206.099777 62.280575,206.764603 63.306328,207.190445 
	C64.519577,207.694061 65.818459,207.991379 67.080231,208.378128 
	C66.998810,208.816772 66.917389,209.255432 66.835968,209.694077 
	C64.794617,209.882263 62.753277,210.070450 60.591351,210.269745 
	C60.438385,211.795654 60.292370,213.252213 60.146648,214.705856 
	C57.023247,214.527008 57.023247,214.527008 57.031441,203.263290 
z"/>
<path fill="#141414" opacity="1.000000" stroke="none" 
	d="
M201.345200,203.876770 
	C200.322342,205.345886 199.462143,206.763184 199.260895,208.268585 
	C198.979599,210.372665 199.189957,212.542465 199.189957,214.691864 
	C196.180740,214.536240 196.180740,214.536240 195.842804,204.533661 
	C194.396698,203.950165 192.896759,203.344955 191.396820,202.739731 
	C191.508591,202.322128 191.620361,201.904510 191.732132,201.486893 
	C195.678070,201.486893 199.624008,201.486893 205.125107,201.486893 
	C203.273651,202.811386 202.537766,203.337830 201.345200,203.876770 
z"/>
<path fill="#121212" opacity="1.000000" stroke="none" 
	d="
M214.232086,215.003998 
	C211.322357,209.563232 212.337799,201.772034 216.469284,201.277740 
	C215.853714,205.981308 215.263428,210.491684 214.232086,215.003998 
z"/>
<path fill="#FFEFEF" opacity="1.000000" stroke="none" 
	d="
M242.363419,176.280212 
	C243.574066,177.616364 244.933243,178.848022 244.938339,180.085266 
	C244.941513,180.859940 242.980774,182.136703 241.771057,182.317581 
	C239.391953,182.673325 236.922104,182.422287 234.149933,182.422287 
	C234.149933,180.345169 234.149933,178.488846 234.149933,176.178070 
	C236.788803,176.178070 239.364120,176.178070 242.363419,176.280212 
z"/>
<path fill="#FFF5F5" opacity="1.000000" stroke="none" 
	d="
M236.975952,171.886520 
	C235.343781,170.355423 234.154266,168.825806 232.964752,167.296188 
	C233.406998,166.676178 233.849243,166.056168 234.291489,165.436172 
	C237.356400,166.012878 240.440826,166.513062 243.456802,167.281784 
	C243.766861,167.360809 243.965698,169.764374 243.711731,169.869400 
	C241.682693,170.708359 239.532028,171.253113 236.975952,171.886520 
z"/>
<path fill="#FFF1F1" opacity="1.000000" stroke="none" 
	d="
M202.948914,169.233780 
	C204.689148,171.179230 206.303833,173.468277 208.541061,176.639832 
	C204.926880,176.639832 202.752167,176.639832 199.886230,176.639832 
	C200.895874,174.212128 201.859619,171.894760 202.948914,169.233780 
z"/>
<path fill="#F6F6F6" opacity="1.000000" stroke="none" 
	d="
M81.469734,211.692963 
	C81.054535,209.263840 80.622063,206.947266 81.193428,204.912582 
	C81.364151,204.304626 84.921455,203.740494 85.889473,204.492340 
	C87.110504,205.440689 88.228821,208.801819 87.702644,209.285751 
	C86.206917,210.661316 83.852982,211.103714 81.469734,211.692963 
z"/>
<path fill="#F4F4F4" opacity="1.000000" stroke="none" 
	d="
M232.215256,212.237793 
	C228.777771,211.075699 228.120285,208.571426 229.410187,206.244324 
	C230.114853,204.973022 232.651489,203.958069 234.190582,204.156525 
	C235.352570,204.306366 236.901382,206.465805 237.117096,207.904831 
	C237.570099,210.926682 235.628738,212.366058 232.215256,212.237793 
z"/>
<path fill="#ECECEC" opacity="1.000000" stroke="none" 
	d="
M155.326202,211.921265 
	C153.496902,212.046524 152.065628,212.046524 150.452011,212.046524 
	C150.452011,209.316925 150.452011,206.889069 150.452011,203.177246 
	C153.004715,204.162018 155.829193,204.424820 156.880753,205.927933 
	C157.672836,207.060135 156.192856,209.781845 155.326202,211.921265 
z"/>
</svg>